<?xml version="1.0" encoding="UTF-8"?> <svg xmlns="http://www.w3.org/2000/svg" width="64" height="62" viewBox="0 0 64 62" fill="none"><path d="M62.4045 28.3657C63.7083 27.0949 64.1685 25.2298 63.606 23.4983C63.0434 21.7668 61.5747 20.5286 59.773 20.2669L44.0188 17.9776C43.7095 17.9328 43.4422 17.7386 43.3038 17.4582L36.2584 3.18261C35.4528 1.54995 33.8212 0.535767 32.0005 0.535767C30.1799 0.535767 28.5483 1.54995 27.7427 3.18261L20.6973 17.4583C20.5587 17.7386 20.2915 17.9328 19.9822 17.9778L4.22823 20.2669C2.42655 20.5286 0.958 21.7668 0.395219 23.4983C-0.167562 25.2298 0.292844 27.0949 1.59672 28.3657L12.9965 39.4778C13.2202 39.696 13.3225 40.0103 13.2696 40.3184L10.5784 56.0088C10.2708 57.8033 10.9944 59.5827 12.4673 60.6528C13.9402 61.7233 15.8567 61.8615 17.4679 61.0145L31.5587 53.6065C31.8355 53.461 32.1658 53.461 32.4427 53.6065L46.5336 61.0145C47.2345 61.3829 47.9928 61.565 48.7476 61.5649C49.7277 61.5649 50.7017 61.2578 51.5338 60.6527C53.0067 59.5824 53.7305 57.8029 53.4227 56.0087L50.7315 40.3183C50.6788 40.0102 50.7809 39.6959 51.0046 39.4776L62.4045 28.3657ZM46.9879 40.9607L49.6791 56.6513C49.7691 57.1764 49.4449 57.4758 49.3014 57.58C49.1576 57.6841 48.7726 57.9002 48.3012 57.6522L34.2103 50.2442C33.5186 49.8807 32.7598 49.6987 32.0008 49.6987C31.2419 49.6987 30.4829 49.8807 29.7913 50.244L15.7006 57.6519C15.2289 57.8998 14.844 57.6839 14.7004 57.5797C14.5569 57.4755 14.2326 57.1761 14.3227 56.651L17.0139 40.9607C17.2781 39.4201 16.7678 37.8491 15.6482 36.758L4.24848 25.6459C3.86697 25.2738 3.95331 24.8411 4.0083 24.6724C4.063 24.5035 4.24764 24.1025 4.77484 24.026L20.5286 21.7368C22.0754 21.5121 23.412 20.5412 24.1039 19.1393L31.1493 4.86364C31.3852 4.38594 31.8234 4.33433 32.001 4.33433C32.1783 4.33433 32.6165 4.3858 32.8525 4.86364V4.86378L39.8979 19.1395C40.5896 20.5414 41.9261 21.5122 43.4729 21.737L59.227 24.0262C59.7542 24.1027 59.9387 24.5036 59.9935 24.6725C60.0483 24.8414 60.1348 25.2742 59.7532 25.646L48.3534 36.7581C47.234 37.8491 46.7237 39.4201 46.9879 40.9607Z" fill="#43587B"></path></svg> 