<svg width="12" height="12" viewBox="0 0 12 12" fill="none" xmlns="http://www.w3.org/2000/svg">
<path d="M7.28742 2.76785C7.0433 2.52373 7.0433 2.1394 7.28742 1.89527C7.53155 1.6594 7.91588 1.6594 8.16 1.89527L11.8169 5.55163C11.9302 5.66489 12 5.82214 12 5.99644C12 6.17074 11.9302 6.32799 11.8169 6.4418L8.16 10.0982C7.91588 10.3423 7.53155 10.3423 7.28742 10.0982C7.0433 9.85403 7.0433 9.4697 7.28742 9.22558L9.9057 6.6161L0.610859 6.6161C0.270515 6.61665 -1.72394e-07 6.33733 -1.87271e-07 5.99699C-2.02148e-07 5.65665 0.270515 5.38613 0.610859 5.38613L9.90515 5.38613L7.28742 2.76785Z" fill="white"/>
</svg>
