<svg width="24" height="24" viewBox="0 0 24 24" fill="none" xmlns="http://www.w3.org/2000/svg">
<path fill-rule="evenodd" clip-rule="evenodd" d="M7.2 19.1998C5.88 19.1998 4.812 20.2798 4.812 21.5998C4.812 22.9198 5.88 23.9998 7.2 23.9998C8.52 23.9998 9.6 22.9198 9.6 21.5998C9.6 20.2798 8.52 19.1998 7.2 19.1998ZM0 0V2.4H2.4L6.72 11.508L5.1 14.448C4.908 14.784 4.8 15.18 4.8 15.6C4.8 16.92 5.88 18 7.2 18H21.6V15.6H7.704C7.536 15.6 7.404 15.468 7.404 15.3L7.44 15.156L8.52 13.2H17.46C18.36 13.2 19.152 12.708 19.56 11.964L23.856 4.176C23.952 4.008 24 3.804 24 3.6C24 2.94 23.46 2.4 22.8 2.4H5.052L3.924 0H0ZM19.2 19.1998C17.88 19.1998 16.812 20.2798 16.812 21.5998C16.812 22.9198 17.88 23.9998 19.2 23.9998C20.52 23.9998 21.6 22.9198 21.6 21.5998C21.6 20.2798 20.52 19.1998 19.2 19.1998Z" fill="white"/>
</svg>
