<svg width="38" height="38" viewBox="0 0 38 38" fill="none" xmlns="http://www.w3.org/2000/svg">
<path d="M22.1658 1.90002H15.8325C15.483 1.90002 15.1992 2.18376 15.1992 2.53333C15.1992 2.8829 15.483 3.16664 15.8325 3.16664H22.1658C22.5154 3.16664 22.7991 2.8829 22.7991 2.53333C22.7991 2.18376 22.5154 1.90002 22.1658 1.90002Z" fill="#43587B"/>
<path d="M26.6006 1.90002H25.9673C25.6177 1.90002 25.334 2.18376 25.334 2.53333C25.334 2.8829 25.6177 3.16664 25.9673 3.16664H26.6006C26.9502 3.16664 27.2339 2.8829 27.2339 2.53333C27.2339 2.18376 26.9502 1.90002 26.6006 1.90002Z" fill="#43587B"/>
<path d="M19.7867 32.3H18.2141C17.2508 32.3 16.4668 33.0841 16.4668 34.0474V34.3533C16.4668 35.3166 17.2508 36.1 18.2135 36.1H19.7861C20.7494 36.1 21.5334 35.3166 21.5334 34.3533V34.0474C21.5334 33.0841 20.7494 32.3 19.7867 32.3ZM20.2668 34.3533C20.2668 34.618 20.0515 34.8334 19.7867 34.8334H18.2141C17.9488 34.8334 17.7334 34.618 17.7334 34.3533V34.0474C17.7334 33.782 17.9487 33.5667 18.2141 33.5667H19.7861C20.0515 33.5667 20.2668 33.782 20.2668 34.0474V34.3533Z" fill="#43587B"/>
<path d="M27.4769 0H10.5219C9.25968 0 8.23242 1.02726 8.23242 2.2895V35.7105C8.23242 36.9727 9.25968 38 10.5219 38H27.4762C28.7385 38 29.7657 36.9727 29.7657 35.7112V2.2895C29.7658 1.02726 28.7385 0 27.4769 0ZM28.4991 35.7105C28.4991 36.2742 28.0406 36.7333 27.4769 36.7333H10.5219C9.95764 36.7333 9.49911 36.2741 9.49911 35.7111V2.2895C9.49911 1.72581 9.95764 1.26669 10.5219 1.26669H27.4762C28.0405 1.26669 28.499 1.72588 28.499 2.2895V35.7105H28.4991Z" fill="#43587B"/>
<path d="M29.1323 3.80005H8.86573C8.51616 3.80005 8.23242 4.08379 8.23242 4.43336V31.0334C8.23242 31.3829 8.51616 31.6667 8.86573 31.6667H29.1324C29.482 31.6667 29.7657 31.3829 29.7657 31.0334V4.43336C29.7657 4.08379 29.482 3.80005 29.1323 3.80005ZM28.499 30.4001H9.49904V5.06674H28.499V30.4001Z" fill="#43587B"/>
</svg>
