<svg width="60" height="60" viewBox="0 0 60 60" fill="none" xmlns="http://www.w3.org/2000/svg">
<path d="M37.549 30C37.549 25.832 34.1556 22.4509 29.9999 22.4509C25.8441 22.4509 22.4507 25.832 22.4507 30C22.4507 34.1681 25.8441 37.5492 29.9999 37.5492C34.1556 37.5492 37.549 34.1681 37.549 30ZM29.9999 34.5984C27.4671 34.5984 25.4015 32.5328 25.4015 30C25.4015 27.4673 27.4671 25.4017 29.9999 25.4017C32.5326 25.4017 34.5982 27.4673 34.5982 30C34.5982 32.5328 32.5326 34.5984 29.9999 34.5984Z" fill="#43587B"/>
<path d="M19.0696 28.5246C18.2582 28.5246 17.5942 29.1885 17.5942 30C17.5942 30.8115 18.2582 31.4754 19.0696 31.4754C19.8811 31.4754 20.5451 30.8115 20.5451 30C20.5451 29.1885 19.8811 28.5246 19.0696 28.5246Z" fill="#43587B"/>
<path d="M12.7622 30C12.7622 30.8115 13.4261 31.4754 14.2376 31.4754C15.0491 31.4754 15.713 30.8115 15.713 30C15.713 29.1885 15.0491 28.5246 14.2376 28.5246C13.4261 28.5246 12.7622 29.1885 12.7622 30Z" fill="#43587B"/>
<path d="M10.8811 30.0001C10.8811 27.0001 8.43443 24.5533 5.43443 24.5533C2.43443 24.5533 0 27.0001 0 30.0001C0 33.0001 2.44672 35.4468 5.44672 35.4468C8.44672 35.4468 10.8811 33.0001 10.8811 30.0001ZM5.44672 32.496C4.06967 32.496 2.95082 31.3771 2.95082 30.0001C2.95082 28.623 4.06967 27.5042 5.44672 27.5042C6.82377 27.5042 7.94262 28.623 7.94262 30.0001C7.94262 31.3771 6.81148 32.496 5.44672 32.496Z" fill="#43587B"/>
<path d="M45.7625 31.4754C46.5774 31.4754 47.2379 30.8149 47.2379 30C47.2379 29.1852 46.5774 28.5246 45.7625 28.5246C44.9477 28.5246 44.2871 29.1852 44.2871 30C44.2871 30.8149 44.9477 31.4754 45.7625 31.4754Z" fill="#43587B"/>
<path d="M40.9305 31.4754C41.742 31.4754 42.4059 30.8115 42.4059 30C42.4059 29.1885 41.742 28.5246 40.9305 28.5246C40.119 28.5246 39.4551 29.1885 39.4551 30C39.4551 30.8115 40.119 31.4754 40.9305 31.4754Z" fill="#43587B"/>
<path d="M54.5532 24.5533C51.5532 24.5533 49.1064 27.0001 49.1064 30.0001C49.1064 33.0001 51.5532 35.4468 54.5532 35.4468C57.5532 35.4468 59.9999 33.0001 59.9999 30.0001C59.9999 27.0001 57.5532 24.5533 54.5532 24.5533ZM54.5532 32.496C53.1761 32.496 52.0573 31.3771 52.0573 30.0001C52.0573 28.623 53.1761 27.5042 54.5532 27.5042C55.9302 27.5042 57.0491 28.623 57.0491 30.0001C57.0491 31.3771 55.9302 32.496 54.5532 32.496Z" fill="#43587B"/>
<path d="M29.9998 39.4549C29.1884 39.4549 28.5244 40.1188 28.5244 40.9303C28.5244 41.7418 29.1884 42.4057 29.9998 42.4057C30.8113 42.4057 31.4752 41.7418 31.4752 40.9303C31.4752 40.1188 30.8113 39.4549 29.9998 39.4549Z" fill="#43587B"/>
<path d="M29.9998 44.2869C29.1884 44.2869 28.5244 44.9509 28.5244 45.7623C28.5244 46.5738 29.1884 47.2377 29.9998 47.2377C30.8113 47.2377 31.4752 46.5738 31.4752 45.7623C31.4752 44.9509 30.8113 44.2869 29.9998 44.2869Z" fill="#43587B"/>
<path d="M29.9999 49.1188C26.9999 49.1188 24.5532 51.5656 24.5532 54.5656C24.5532 57.5656 26.9999 60 29.9999 60C32.9999 60 35.4467 57.5533 35.4467 54.5533C35.4467 51.5533 32.9999 49.1188 29.9999 49.1188ZM29.9999 57.0492C28.6229 57.0492 27.504 55.9303 27.504 54.5533C27.504 53.1762 28.6229 52.0574 29.9999 52.0574C31.377 52.0574 32.4958 53.1762 32.4958 54.5533C32.4958 55.9303 31.377 57.0492 29.9999 57.0492Z" fill="#43587B"/>
<path d="M29.9998 20.5451C30.8113 20.5451 31.4752 19.8812 31.4752 19.0697C31.4752 18.2582 30.8113 17.5943 29.9998 17.5943C29.1884 17.5943 28.5244 18.2582 28.5244 19.0697C28.5244 19.8812 29.1884 20.5451 29.9998 20.5451Z" fill="#43587B"/>
<path d="M29.9998 15.7131C30.8147 15.7131 31.4752 15.0525 31.4752 14.2377C31.4752 13.4228 30.8147 12.7623 29.9998 12.7623C29.185 12.7623 28.5244 13.4228 28.5244 14.2377C28.5244 15.0525 29.185 15.7131 29.9998 15.7131Z" fill="#43587B"/>
<path d="M29.9999 10.8811C32.9999 10.8811 35.4467 8.43443 35.4467 5.43443C35.4467 2.43443 32.9999 0 29.9999 0C26.9999 0 24.5532 2.44672 24.5532 5.44672C24.5532 8.44672 26.9999 10.8811 29.9999 10.8811ZM29.9999 2.95082C31.377 2.95082 32.4958 4.06967 32.4958 5.44672C32.4958 6.82377 31.377 7.94262 29.9999 7.94262C28.6229 7.94262 27.504 6.82377 27.504 5.44672C27.504 4.06967 28.6229 2.95082 29.9999 2.95082Z" fill="#43587B"/>
<path d="M21.2337 36.6885C20.6558 37.2664 20.6558 38.2008 21.2337 38.7787C21.8116 39.3566 22.746 39.3566 23.3239 38.7787C23.9017 38.2008 23.9017 37.2664 23.3239 36.6885C22.7337 36.1107 21.7993 36.1107 21.2337 36.6885Z" fill="#43587B"/>
<path d="M18.8607 42.6148C19.6755 42.6148 20.3361 41.9542 20.3361 41.1394C20.3361 40.3245 19.6755 39.6639 18.8607 39.6639C18.0458 39.6639 17.3853 40.3245 17.3853 41.1394C17.3853 41.9542 18.0458 42.6148 18.8607 42.6148Z" fill="#43587B"/>
<path d="M8.79109 43.5123C6.66404 45.6393 6.66404 49.0819 8.79109 51.209C10.9181 53.336 14.3608 53.336 16.4878 51.209C18.6149 49.0819 18.6149 45.6393 16.4878 43.5123C14.3608 41.3975 10.9058 41.3975 8.79109 43.5123ZM14.3976 49.1311C13.4263 50.1024 11.8526 50.1024 10.8813 49.1311C9.90994 48.1598 9.90994 46.586 10.8813 45.6147C11.8526 44.6434 13.4263 44.6434 14.3976 45.6147C15.369 46.5738 15.369 48.1598 14.3976 49.1311Z" fill="#43587B"/>
<path d="M41.1395 20.336C41.9543 20.336 42.6149 19.6754 42.6149 18.8606C42.6149 18.0458 41.9543 17.3852 41.1395 17.3852C40.3246 17.3852 39.6641 18.0458 39.6641 18.8606C39.6641 19.6754 40.3246 20.336 41.1395 20.336Z" fill="#43587B"/>
<path d="M37.7337 23.7418C38.5486 23.7418 39.2091 23.0813 39.2091 22.2664C39.2091 21.4516 38.5486 20.791 37.7337 20.791C36.9189 20.791 36.2583 21.4516 36.2583 22.2664C36.2583 23.0813 36.9189 23.7418 37.7337 23.7418Z" fill="#43587B"/>
<path d="M51.209 16.4877C53.3361 14.3606 53.3361 10.918 51.209 8.79096C49.082 6.66392 45.6393 6.66392 43.5123 8.79096C41.3852 10.918 41.3852 14.3606 43.5123 16.4877C45.6393 18.6147 49.0943 18.6024 51.209 16.4877ZM45.6024 10.8688C46.5738 9.89752 48.1475 9.89752 49.1188 10.8688C50.0902 11.8401 50.0902 13.4139 49.1188 14.3852C48.1475 15.3565 46.5738 15.3565 45.6024 14.3852C44.6311 13.4262 44.6311 11.8401 45.6024 10.8688Z" fill="#43587B"/>
<path d="M41.1395 42.6148C41.9543 42.6148 42.6149 41.9542 42.6149 41.1394C42.6149 40.3245 41.9543 39.6639 41.1395 39.6639C40.3246 39.6639 39.6641 40.3245 39.6641 41.1394C39.6641 41.9542 40.3246 42.6148 41.1395 42.6148Z" fill="#43587B"/>
<path d="M36.6883 36.6885C36.1104 37.2664 36.1104 38.2008 36.6883 38.7787C37.2662 39.3566 38.2006 39.3566 38.7785 38.7787C39.3563 38.2008 39.3563 37.2664 38.7785 36.6885C38.2006 36.1107 37.2662 36.1107 36.6883 36.6885Z" fill="#43587B"/>
<path d="M43.5123 43.5123C41.3852 45.6393 41.3852 49.0819 43.5123 51.209C45.6393 53.336 49.082 53.336 51.209 51.209C53.3361 49.0819 53.3361 45.6393 51.209 43.5123C49.0943 41.3975 45.6393 41.3975 43.5123 43.5123ZM49.1311 49.1311C48.1598 50.1024 46.5861 50.1024 45.6147 49.1311C44.6434 48.1598 44.6434 46.586 45.6147 45.6147C46.5861 44.6434 48.1598 44.6434 49.1311 45.6147C50.1025 46.5738 50.1025 48.1598 49.1311 49.1311Z" fill="#43587B"/>
<path d="M22.2664 23.7418C23.0813 23.7418 23.7418 23.0813 23.7418 22.2664C23.7418 21.4516 23.0813 20.791 22.2664 20.791C21.4516 20.791 20.791 21.4516 20.791 22.2664C20.791 23.0813 21.4516 23.7418 22.2664 23.7418Z" fill="#43587B"/>
<path d="M18.8607 20.336C19.6755 20.336 20.3361 19.6754 20.3361 18.8606C20.3361 18.0458 19.6755 17.3852 18.8607 17.3852C18.0458 17.3852 17.3853 18.0458 17.3853 18.8606C17.3853 19.6754 18.0458 20.336 18.8607 20.336Z" fill="#43587B"/>
<path d="M16.4878 16.4877C18.6149 14.3606 18.6149 10.918 16.4878 8.79097C14.3608 6.66392 10.9181 6.66392 8.79109 8.79097C6.66404 10.918 6.66404 14.3606 8.79109 16.4877C10.9058 18.6024 14.3608 18.6024 16.4878 16.4877ZM10.869 10.8688C11.8403 9.89752 13.414 9.89752 14.3854 10.8688C15.3567 11.8401 15.3567 13.4139 14.3854 14.3852C13.414 15.3565 11.8403 15.3565 10.869 14.3852C9.89765 13.4262 9.89765 11.8401 10.869 10.8688Z" fill="#43587B"/>
</svg>
