<svg width="18" height="18" viewBox="0 0 18 18" fill="none" xmlns="http://www.w3.org/2000/svg">
<path d="M17.6193 16.0762L12.2294 10.6554C13.0096 9.55235 13.4731 8.20689 13.4731 6.75C13.4731 3.02232 10.4683 0 6.76197 0C3.05564 0 0.0507812 3.02232 0.0507812 6.75C0.0507812 10.4777 3.05564 13.5 6.76197 13.5C8.2104 13.5 9.54803 13.0337 10.6449 12.249L16.0348 17.6698C16.2536 17.8898 16.5405 18 16.8274 18C17.1143 18 17.4011 17.8898 17.6194 17.6698C18.0569 17.23 18.0569 16.5161 17.6193 16.0762ZM10.4069 9.35101L9.96706 9.97311L9.34833 10.4158C8.58557 10.9614 7.69118 11.25 6.76197 11.25C4.29484 11.25 2.28785 9.23117 2.28785 6.75C2.28785 4.2688 4.29484 2.25 6.76197 2.25C9.2291 2.25 11.2361 4.2688 11.2361 6.75C11.2366 7.6843 10.9498 8.58375 10.4069 9.35101Z" fill="#8798B6"/>
</svg>
