<svg width="16" height="16" viewBox="0 0 16 16" fill="none" xmlns="http://www.w3.org/2000/svg">
<path d="M14.6311 5.65077C14.0036 3.8905 12.7281 2.47995 11.0397 1.67896C9.35134 0.877912 7.45202 0.782379 5.69175 1.40992C3.93149 2.03745 2.52089 3.31289 1.71989 5.0013C0.918944 6.68972 0.82341 8.58899 1.4509 10.3493C1.50372 10.4975 1.66669 10.5746 1.81476 10.5219C1.96293 10.4691 2.04019 10.3062 1.98737 10.158C1.41089 8.54106 1.49864 6.79636 2.23443 5.24538C2.97022 3.6944 4.26597 2.52276 5.88296 1.94633C7.49995 1.36991 9.2447 1.45771 10.7956 2.19345C12.3467 2.92924 13.5183 4.22499 14.0947 5.84198C14.6712 7.45897 14.5834 9.20367 13.8476 10.7546C13.1118 12.3056 11.8161 13.4773 10.1991 14.0537C8.38671 14.6997 6.39855 14.5042 4.74449 13.5172C4.60933 13.4366 4.43464 13.4808 4.35405 13.6158C4.27347 13.7509 4.31761 13.9257 4.45267 14.0063C5.55403 14.6635 6.79121 14.9983 8.0377 14.9982C8.82902 14.9982 9.62422 14.8632 10.3903 14.5902C12.1506 13.9626 13.5611 12.6872 14.3621 10.9988C15.1631 9.31031 15.2586 7.41103 14.6311 5.65077Z" fill="white" stroke="#FF5C26"/>
<path d="M11.1729 7.99959C11.1729 7.84236 11.0454 7.71484 10.8881 7.71484H3.79647C3.63919 7.71484 3.51172 7.84236 3.51172 7.99959C3.51172 8.15682 3.63919 8.28434 3.79647 8.28434H10.8881C11.0454 8.28434 11.1729 8.15682 11.1729 7.99959Z" fill="white" stroke="#FF5C26"/>
<path d="M8.66156 11.2117C8.55031 11.3229 8.55031 11.5032 8.66156 11.6144C8.71713 11.67 8.79002 11.6978 8.86287 11.6978C8.93572 11.6978 9.00862 11.67 9.06419 11.6144L12.2439 8.43469C12.3551 8.32349 12.3551 8.1432 12.2439 8.03201L9.06419 4.85232C8.95304 4.74112 8.77266 4.74112 8.66156 4.85232C8.55031 4.96351 8.55031 5.1438 8.66156 5.255L11.6399 8.23332L8.66156 11.2117Z" fill="white" stroke="#FF5C26"/>
</svg>
