<svg width="24" height="24" viewBox="0 0 24 24" fill="none" xmlns="http://www.w3.org/2000/svg">
<path d="M13.9996 1.20001H9.99959C9.77881 1.20001 9.59961 1.37922 9.59961 1.6C9.59961 1.82078 9.77881 1.99998 9.99959 1.99998H13.9996C14.2204 1.99998 14.3996 1.82078 14.3996 1.6C14.3996 1.37922 14.2204 1.20001 13.9996 1.20001Z" fill="#43587B"/>
<path d="M16.8 1.20001H16.4C16.1792 1.20001 16 1.37922 16 1.6C16 1.82078 16.1792 1.99998 16.4 1.99998H16.8C17.0207 1.99998 17.2 1.82078 17.2 1.6C17.2 1.37922 17.0207 1.20001 16.8 1.20001Z" fill="#43587B"/>
<path d="M12.4972 20.4001H11.504C10.8956 20.4001 10.4004 20.8953 10.4004 21.5037V21.6969C10.4004 22.3053 10.8956 22.8001 11.5036 22.8001H12.4968C13.1052 22.8001 13.6004 22.3053 13.6004 21.6969V21.5037C13.6004 20.8953 13.1052 20.4001 12.4972 20.4001ZM12.8004 21.6969C12.8004 21.8641 12.6644 22.0001 12.4972 22.0001H11.504C11.3364 22.0001 11.2004 21.8641 11.2004 21.6969V21.5037C11.2004 21.3361 11.3363 21.2001 11.504 21.2001H12.4968C12.6644 21.2001 12.8004 21.336 12.8004 21.5037V21.6969Z" fill="#43587B"/>
<path d="M17.3546 0H6.6462C5.84899 0 5.2002 0.648797 5.2002 1.446V22.554C5.2002 23.3512 5.84899 24 6.6462 24H17.3542C18.1514 24 18.8002 23.3512 18.8002 22.5544V1.446C18.8002 0.648797 18.1514 0 17.3546 0ZM18.0002 22.554C18.0002 22.91 17.7106 23.2 17.3546 23.2H6.6462C6.28981 23.2 6.00021 22.91 6.00021 22.5544V1.446C6.00021 1.08998 6.28981 0.800016 6.6462 0.800016H17.3542C17.7106 0.800016 18.0002 1.09003 18.0002 1.446V22.554H18.0002Z" fill="#43587B"/>
<path d="M18.4001 2.40002H5.60018C5.3794 2.40002 5.2002 2.57923 5.2002 2.80001V19.6C5.2002 19.8208 5.3794 20 5.60018 20H18.4002C18.621 20 18.8002 19.8208 18.8002 19.6V2.80001C18.8002 2.57923 18.621 2.40002 18.4001 2.40002ZM18.0002 19.2H6.00016V3.20004H18.0002V19.2Z" fill="#43587B"/>
</svg>
