<svg width="22" height="22" viewBox="0 0 22 22" fill="none" xmlns="http://www.w3.org/2000/svg">
<path d="M7.64478 20.4144C5.1298 19.5179 3.11448 17.6959 1.97006 15.2838C0.825566 12.8719 0.689073 10.1586 1.58567 7.64391C2.48226 5.12924 4.30454 3.11411 6.71686 1.96983C9.12919 0.825612 11.8428 0.689136 14.3578 1.58555C14.5695 1.66101 14.6798 1.89383 14.6044 2.10535C14.529 2.31702 14.2963 2.42739 14.0846 2.35193C11.7743 1.5284 9.28155 1.65375 7.06559 2.70488C4.84963 3.75601 3.17564 5.60708 2.35208 7.91707C1.52851 10.2271 1.65395 12.7196 2.70514 14.9352C3.7564 17.1509 5.6077 18.8246 7.91797 19.6482C10.2282 20.4716 12.721 20.3463 14.9369 19.2951C17.1529 18.244 18.8269 16.3929 19.6505 14.083C20.5735 11.4938 20.2941 8.65362 18.884 6.29068C18.7688 6.09759 18.8319 5.84803 19.0249 5.73291C19.2179 5.61779 19.4676 5.68084 19.5827 5.87379C20.5217 7.44716 21.0001 9.21457 21 10.9953C21 12.1257 20.8071 13.2617 20.4169 14.3561C19.5203 16.8708 17.6981 18.8858 15.2857 20.0301C12.8734 21.1744 10.1598 21.3109 7.64478 20.4144Z" fill="white" stroke="#7B8CA8"/>
<path d="M11.0006 15.4748C10.7759 15.4748 10.5937 15.2926 10.5937 15.068L10.5937 4.93706C10.5937 4.71238 10.7759 4.53027 11.0006 4.53027C11.2252 4.53027 11.4074 4.71238 11.4074 4.93706L11.4074 15.068C11.4074 15.2926 11.2252 15.4748 11.0006 15.4748Z" fill="white" stroke="#7B8CA8"/>
<path d="M15.5898 11.888C15.7486 11.7291 16.0062 11.7291 16.1651 11.888C16.2445 11.9674 16.2842 12.0715 16.2842 12.1756C16.2842 12.2797 16.2445 12.3838 16.1651 12.4632L11.6221 17.0056C11.4632 17.1645 11.2056 17.1645 11.0468 17.0056L6.5038 12.4632C6.34493 12.3044 6.34493 12.0467 6.5038 11.888C6.66266 11.7291 6.92026 11.7291 7.07913 11.888L11.3344 16.1427L15.5898 11.888Z" fill="white" stroke="#7B8CA8"/>
</svg>
