<svg width="22" height="22" viewBox="0 0 22 22" fill="none" xmlns="http://www.w3.org/2000/svg">
<path d="M7.64478 1.5856C5.1298 2.48208 3.11448 4.30413 1.97006 6.71616C0.825566 9.12811 0.689073 11.8414 1.58567 14.3561C2.48226 16.8708 4.30454 18.8859 6.71686 20.0302C9.12919 21.1744 11.8428 21.3109 14.3578 20.4144C14.5695 20.339 14.6798 20.1062 14.6044 19.8946C14.529 19.683 14.2963 19.5726 14.0846 19.6481C11.7743 20.4716 9.28155 20.3462 7.06559 19.2951C4.84963 18.244 3.17564 16.3929 2.35208 14.0829C1.52851 11.7729 1.65395 9.28045 2.70514 7.06484C3.7564 4.84909 5.6077 3.17538 7.91797 2.35184C10.2282 1.52838 12.721 1.65374 14.9369 2.70486C17.1529 3.75599 18.8269 5.60706 19.6505 7.91705C20.5735 10.5062 20.2941 13.3464 18.884 15.7093C18.7688 15.9024 18.8319 16.152 19.0249 16.2671C19.2179 16.3822 19.4676 16.3192 19.5827 16.1262C20.5217 14.5528 21.0001 12.7854 21 11.0047C21 9.87428 20.8071 8.73827 20.4169 7.64389C19.5203 5.12916 17.6981 3.11416 15.2857 1.96987C12.8734 0.825593 10.1598 0.689117 7.64478 1.5856Z" fill="white" stroke="#7B8CA8"/>
<path d="M11.0006 6.52522C10.7759 6.52522 10.5937 6.70739 10.5937 6.932L10.5937 17.0629C10.5937 17.2876 10.7759 17.4697 11.0006 17.4697C11.2252 17.4697 11.4074 17.2876 11.4074 17.0629L11.4074 6.932C11.4074 6.70739 11.2252 6.52522 11.0006 6.52522Z" fill="white" stroke="#7B8CA8"/>
<path d="M15.5898 10.112C15.7486 10.2709 16.0062 10.2709 16.1651 10.112C16.2445 10.0326 16.2842 9.92849 16.2842 9.82442C16.2842 9.72035 16.2445 9.61621 16.1651 9.53682L11.6221 4.99441C11.4632 4.83549 11.2056 4.83549 11.0468 4.99441L6.5038 9.53682C6.34493 9.6956 6.34493 9.9533 6.5038 10.112C6.66266 10.2709 6.92026 10.2709 7.07913 10.112L11.3344 5.85726L15.5898 10.112Z" fill="white" stroke="#7B8CA8"/>
</svg>
